<svg xmlns="http://www.w3.org/2000/svg" width="599.92" height="898.92" viewBox="0 0 599.92 898.92">
  <title>Aktiv 1</title>
  <g id="Lag_2" data-name="Lag 2">
    <g id="Lag_1-2" data-name="Lag 1">
      <g>
        <path d="M599.92,898.92H0V0H599.92ZM376.84,398.44l-9.58-2.91c2.63,4.84,4.08,5.63,10.48,5.67l11.09,8.37C386.74,398.42,384.88,396.85,376.84,398.44ZM174.15,269.67l11.44-3.44c2.51,3.56,4.6,6.59,6.76,9.58s4.52,6.14,6.59,8.95l-1.58-13,1.39-.23,2.54,5.68.9-2.4,1,.1,2,14.65.76-.08V274.34l1.57-.07.76,6.05,2.66-2,.76,7.37.88-.11.66-8.38,1.29-.13,6.57,12.62,1.42-5.9.7.13v8.89l14.36,7.28c1-5.54,1.85-9.86,2.64-14.18a6.24,6.24,0,0,0,.28-2.86c-1.15-3.27-2.52-6.45-3.74-9.49l-2.8,3c-4.87-4.64-4.87-4.64.36-10.47l-5.53,2.14,3-14.68-8.17-.76c2-2.83,3.25-6,5.57-7.39s6-1.67,8.27-.6c5.11,2.47.47,4.54-2,7.1,9.39-1.17,17.46-3,24.66-7.88l-4.4-.36c5.7-2.06,9.48-5.45,10.65-11.5l-4-1.8c.61-2.71,1.77-5.12,1.48-7.35-.25-2-2.12-3.74-3.36-5.74a26.09,26.09,0,0,0,4-1c1.64-.68,3.16-1.62,4.74-2.46l-4-3.9,1.56-.85-5.33-1.85,5.34-1.44-10-7.58.64-1,6.75,3.29a12.76,12.76,0,0,0-4.23-4.49c-4.07-2.28-2.16-5.52-.75-7.64,1.94-2.9,4.89-5.21,7.66-7.45,1.31-1.06,3.51-2.3,4.81-1.89,5.48,1.74,10.78,4.06,16.66,6.38l-6.6,7.48c4.23-1.25,5.63-7,11.32-4.35L276.44,204.6l17.46,7.5-3.75,1.49,5.34,5L292.41,227l.74.51,7.9-5.95-5.66,12.57,1.24.55,4.33-2.59c1.88,7-5.08,7.82-8.37,12.41L309,238l3.46,6c1.64-2.06-2.9-5.77,2.3-6.73.47-.09.06-4.92.06-7.82l1.67,3.11L318.14,216l.45,0,.91,5.62,1.88-4,.79.22v9l.67,0,2.1-10.1c.68,4.87-.09,10.11,2.17,12.55s7.53,2.06,10.26,2.65l6.19-14.9,1.64.62-5.88,15.64c8.07,5.61,13.28,13,14.12,23.64l-7,6.19,7-3-2.56,4,4.27-1.67L347,272.92l1.28,1.18,10-4.36.16.44-14.77,10.51,1,1.49c5.72-2.38,11.52-4.6,17.12-7.24,1.62-.76,2.68-2.71,4.56-4.72l4.72,1.57.25-.71-5.16-4c1.48-.75,2.54-1.73,3.54-1.67,1.25.07,2.46,1,3.69,1.53-5.22-6.61,2.14-6.75,4-9.73l5,4.22.39-.42-3.79-4.77,4.73-3-4.92-4.12c2.9.8,5.08,1,6.82,2,3.74,2.11,5,.32,6-3s2.34-6.58,3.23-10c.7-2.65.93-5.42,1.37-8.14l-1.5-.7a57.55,57.55,0,0,1,7-3.8c5.39-2,12.07-1.67,14.12-9.18a10.49,10.49,0,0,1,4.42-5.36,6.14,6.14,0,0,1,5.44-.17c1.72,1.07,2.65,3.42,4.09,5.46l.41-3a47.89,47.89,0,0,0,2.61,4.36c1.29,1.77,4.14,3.5,4,5-.54,5.29,3.1,8.65,5.44,12.14s2.24,4.73-1.23,6.14c-8.15,3.3-16.33,6.52-24.49,9.77,9.69-2.61,15.17,5.41,22.34,9.33l-5.42-1.9-.2.57,6.31,4.31-.49.85-13.11-5.61,15.24,17.59-5.82,2.65c-2.77-2.22-14.05-4.4-22.8-3.79l27.4,13.56-4.26,1-.48,6.79H447l.16,1.4-5,2,3.81,4.78L434.07,302l-.24.75,13.68,5.37-.4,1.11-22.37-5.61-.43,1.25c1.44,1,3.78,1.76,4.15,3.07,1.3,4.62,1.92,9.42,2.79,14.16-1.4-2.15-2.21-4.6-3.41-6.84a68.56,68.56,0,0,0-4-6l-.6.62,3.26,16.58-6.82-2.92c3.67,8.88,11.56,9.79,17.51,14l1.9-5c2.54-.67,4.22-1.15,5.91-1.55,1-.23,2-.35,3-.51l.29,5.18c3.48-2.94,6.61-4.88,8.76-7.58a9.6,9.6,0,0,1,10.89-3.33c3.61,1.13,7.51,1.47,10.69-1.7a15,15,0,0,1,3.11-2.11c7.44-4.34,16.17-2.77,24.09-5.18,3.38-1,6.67,1.08,7.37,4.82.45,2.36-.44,5-.78,8l-8.61-2.6-.25.73,7,4.69L506.46,344l-4-1.19,3.77,4.26-.48.52-7.13-4.54-.25.46,6.93,8.36L504,353.67l-9.74-4.08-.74.59,6.38,8.08-1,.93c-3.31-2.85-6.57-5.77-10-8.51a19.62,19.62,0,0,0-3.92-1.93c.11,1.45.18,2.9.34,4.34.33,3.06,4.58,6.15.42,8.81L477.59,356l-.81.91,5.12,10.49-13.22-7.82-.73,1,5.65,4.73H471l2.83,10.9-5.61-2.52.32,2.55-6.79-5,1.25,5.07-5.34-6.21,1.38,6.16-2.78-1.35c-.29-5.07-2.8-8.35-8.35-10.55l5.25,8c-.4.48-1.2,1-1.15,1.43.47,3.57,1.09,7.12,1.68,10.8l-8.45-9.83-1.38.8,4.53,8.84-.5.24-4.14-5.17-.48,10.81-4.61-5.63-.55.3,2.37,5.24-.77.36-9.12-15.34,1.32,6-.52.2-3.4-5.74-1.2.63,6,14.61-.47.19-8.23-11.76,2.1,11.23-1.51.37-3.89-7.36-.76.37,1.61,11-1.07.18-2.81-3.07,2.21,7.52-1.08.62-3.41-4.55-1.15,2-4.09-9.06v14.5l-1.25.14-4-8.57-.79.32,1.75,10.74,6.7,4.21-2.37,2c4.15,1.6,8.19,3.15,12.21,4.73,7.57,3,14.95,1,22.39-.74,4.23-1,8.74-.55,10.88,3.53,1.86,3.55,1.94,7.66,4.24,11.57,3.37,5.73,3.69,13.19,5.8,19.75,1.19,3.71,3.36,7.1,5.09,10.63l-.62.36-4.31-4.83,1.77,5.56-1.16.55-12.18-17.27c.5,2.58,1.11,6.5,2,10.34q1.88,7.75,4.19,15.38c.76,2.51,1.3,5.6,3.06,7.2,7.47,6.78,15.54,12.89,23,19.67,2.93,2.66,4.87,6.43,7.25,9.69l.1-.11-5.4,1.18v6.51c-1.1-1.38-2.12-3.69-3.88-4.64-2.77-1.5-6-2.08-9.36-3.13l-.67,3.45c-1.81-7-3.2-13.36-5.15-19.52a24.58,24.58,0,0,0-4.57-8c-1.14-1.38-4.2-3-5-2.46-1.88,1.28-3.16,3.67-4.23,5.84-.8,1.61-.89,3.57-1.61,6.76L451,485.73l-6.46,2.55c0-6.88.15-13.52-.09-20.14-.07-2-1.23-4-2.16-6.73l-4.15,7c-1.1-.92-2.1-2.33-2.72-2.18-3,.71-6.2,1.31-8.65,3-4,2.71-7.94,4.35-12.73,2.57l.4-5-5.34,8.4-7.64-1.45.64-5.53-1-.19-4.44,8c-4.87-3.26,1.36-6.7-.73-10.21l-6.42,10.71-1.1-2.68-3.56,5.2.85-5.24-.85-.35-4.72,7.09-1.11-.19,4.34-26.14-4.78,11.45-.53-.19,1.05-8-1.21-.53c-.88,1.16-2.48,2.3-2.52,3.49-.15,4.28-1.78,7.06-6.5,7.95l2.13-13.4-1.07-.3-4.42,11.55c.91-5.5-2.21-11.48,2-16.49a16.82,16.82,0,0,0-1.21-1.42l-6.65,16.41-.53-.17,2.95-11.74-8,5.75c-.33-3.1,0-5.82-1-7.91-3.59-7.67-7.52-15.18-11.59-22.61-.66-1.2-2.65-1.67-4-2.48l-.92,1.06L348,445.91l-1.82,1.42-5.67-4.9-.53.35,8.45,14.32-1,.53-7.92-5.19L337.76,460c-1.9-3.63-3.82-7.54-3.15-10.93,1.11-5.61-2.64-7.69-6.12-10.62l4.63,29.37,5.1-.61-.55,1.21c1.13.61,2.25,1.25,3.39,1.84,1.71.88,3.43,1.72,5.65,2.83l-9.85,1.33,12.2,6.76-.22.77-15.24-.9-.1.54,19.31,4.57-.15.86-9.19-.93,17,8.45c-9.49,4.36-17.22-2.54-25.8-1.42l24.72,7.23-2.88,1.49,6.5,6.12-7.68-1.16,4.58,3.67-.8,2.06-23.77-4.72-.13.71,21.59,8.84-2.32,1.22,8.66,4.38c-7,3.85-11.44-2-17.81-1.76l14.22,7-.49,1-14.64-5.1-.27.71L365,535.47l-.63,1.22c-4.37-1.85-8.72-3.73-13.1-5.55s-8.91-3.62-13.37-5.43l-.51,1.14c4.15,2.41,8.49,4.56,12.41,7.3,3.62,2.54,6.79,5.72,10.16,8.62l-.43.2L337.2,531.34l-.77,1.43c2.81,1.75,5.47,3.85,8.47,5.16,5.63,2.45,5.71,2.26,5.58,5.23l-6.72-4.49,8,12.86-1.39,1.22c-3.52-9.35-11-13.21-19.86-15.37,4.19,5.76,13.22,6.07,15.33,14.15L343,550.48c.48,8.79,7.61,13.43,12,20.68l-4.64-2.52-.36.54,7.23,8.26-.46.41L339.94,562c.1,6.64,6.11,8.59,9.38,12.64,3.57,4.42,7.78,8.32,11.72,12.45l-.45.42-10.08-9.17-.61.51,6.9,10.28-1.54,1.32-16.15-17.31-1.17.94,12.92,15-1.66,1.53-17-18.53-1.41,1.26,18.34,19.73-.89.84L330.84,576c5.19,11.19,7.28,23.89,18.66,31.2l-1.45,1-15.16-13.8-1,.79c1.5,2,2.86,4.21,4.55,6.07,2.91,3.21,6.12,6.14,9,9.39.6.69.2,2.26.26,3.42-1.12-.15-2.6.09-3.3-.54-2.33-2.09-4.26-4.63-6.61-6.7-1.07-.95-2.76-1.2-4.17-1.77l-.73,1.27,6.74,12.52c-2.94,1.24-6.93,1.07-4.42,6.05l-5-4c0,3.64-.6,6.56.13,9.11,1.29,4.49,3.54,8.7,5.05,13.15a11.53,11.53,0,0,1,0,5.25c-.06.41-2.11,1-2.32.8-1.18-1.41-2.66-2.94-3-4.63-2.69-14.34-5.14-28.73-7.72-43.09a39.67,39.67,0,0,0-1.38-4.57c0,8.1.9,15.93,1.15,23.78.39,12.58.15,25.18.51,37.77.25,8.76,1.12,17.5,1.62,26.25,1,17.21,2,34.41,2.76,51.63.37,8.91.78,17.9,0,26.75-1.83,20.55-2.13,41,.72,61.49,1.77,12.77,2.44,25.7,3.18,38.59.45,7.72.08,15.49.08,23.45,2.83.17,4.29.33,5.74.33q119.75,0,239.49,0c13.54,0,13.55-.09,13.54-13.78q-.31-319.73-.79-639.46c-.12-46.08,1.91-92.2-2-138.24-1.6-19-2.26-38.15-3.42-57.23-.33-5.36-4.21-10.42-9.29-11-9-1-18.05-1.55-27.1-2.08q-11.53-.68-23.08-.89c-8.74-.16-17.49-.12-26.23-.05-2.4,0-4.79.54-7.19.63-2.94.1-5.88,0-8.82,0-2.58,0-5.17-.05-7.75-.17-2.31-.1-4.62-.5-6.93-.47-12.78.19-25.56.73-38.34.68-18.12-.08-36.23-.68-54.35-.84-18.27-.16-36.54,0-54.81-.07-23.77-.12-47.54-.4-71.32-.51-8.78,0-17.56.38-26.33.33-7.94,0-15.87-.67-23.81-.62-8.94,0-17.87.75-26.81.82-21.61.17-43.21.09-64.82.23-8.93.06-17.86.59-26.79.64-5.47,0-11-.75-16.42-.63-7.4.16-14.79.85-22.18,1.29C31.07,26,22.83,26.6,20,36.25a61.88,61.88,0,0,0-1.88,12.24c-.44,5.13-.26,10.32-.74,15.44C16,78.65,13.54,93.31,13.08,108c-.85,27.13-.73,54.29-.78,81.44Q11.91,393.72,11.67,598q-.12,141,.15,282c0,6.63,0,6.63,6.59,6.78,1.83,0,3.67.09,5.5.09q138,.07,276,.11c1.45,0,2.9-.21,4.6-.34a29.27,29.27,0,0,0,.26-3.17q-.73-22.37-1.52-44.75c-.82-24.52-4.25-48.92-1.39-73.6,1.61-13.93,1.21-28.15,1-42.23-.22-12.18-2-24.32-2.24-36.5-.35-15.86.44-31.75.12-47.62-.33-16.4-1.12-32.81-2.27-49.18-.62-8.89-2.41-17.7-3.67-26.55l-1.95.28L295.62,576l-1.47.31-6.49-21.46-.47.16,1.19,21.66-.49.1-1.33-3.52c-1.14,3.24-2.12,6.59-1.71,9.76.65,5.06,2.3,10,3.36,15,.21,1,0,2.58-.6,3-.83.6-2.28.35-3.85.5l10.54,42.79-4,2.21-11-35.39L278,614V549.8l-.85,1.74c1.24-18.32,1.08-18.85-9.57-31.11l3.9,12.69-1.18.36-4.19-5.95,2.42,12.76c-9.12-9.14-3.76,3.5-7,3.14l-2.81-3.8-.88.44,1.86,8.4-.48.06-15.46-37.16-1.39.53,13.87,37.4-.78.3-9.11-18.33,3.81,22.81-2.64-4.83-.89.32,3.67,13.65-.75.33-3-5.89-1.14,2-1.74.19-8.25-32.94h-.67l6.16,44-.45.15-4.95-24.25-1.61.28,7,34.77-1.18.29-7.1-25.81-.53.14,3.14,17.66-1,.2L230.5,562l-.81.15v11l-.38,0-.8-4.52c-2.17,6.46,1.63,12.53-1.9,18.41l-2.9-6.47-3,26.77-1.34.17-2.36-11-2.48,10.81c-2.63-17.95,1-43.89,7-62.34,2.14-6.56,3.21-13.45,5-20.15.73-2.79,2-5.45,3.12-8.57l2.75-.33,4.72-12.15c2-3,4.85-6.39,6.72-10.3,1.17-2.43.86-5.56,1.2-8.39,5.88-6.67,5.88-6.8-.18-13.85l.64,4.38-.54.12-8.27-20.52-2.17.87,10.64,29.09-10.07-18.67-.51.11,5.82,16.56c-7.65,1.54-6.4-5.67-9.76-9.69l4.27,15.28c-6.12-5.75-12.26-11.18-13.86-19.67L225,485.7l-.94.23L217.88,464l-1.14.06L215.53,482l-4.24-6-1,.4,4.13,17.52c-5.61-6.56-7-9.31-11.15-4.09l-8.19-5.32.58,11.49-7.5-18.76-1.08.18,2.23,10-3.47-4.44L190.06,501l-1.19.31-5.66-14.29-.88.29,1.58,13.6-1.77.56-4.2-13.62-3.59,21.93-1.47-.2V499.48l-.53,0-2,11.39-1.5-9.17-1.46.05L164.3,521h-.39v-7.17l-.65-.07-2.2,8.46-.67-.19.54-7.45-.72-.09-2.06,6.18,1-13.41-.69-.09-4.16,14.73-1.26-.18-1.42-6.43-.88-.21-5.32,15.78-4.47-10.35L136.66,536l-1.07.18-3.68-12.56-2.11,1.58c4.82-20.1,18.89-35.09,27.45-53,.09-.19,1.33.16,2.1.27v-5.71c4.46-1.7,8.64-4.27,13-4.7a33,33,0,0,0,13.77-4.67c3.77-2.21,7.17-5,10.85-7.4,5.84-3.74,11.86-7.21,17.65-11,1.38-.92,3-2.78,3-4.24.25-11,.14-22.1.14-33.1-6.45,8.45-5.87,18.42-7.35,28.18v-22h-1.2l-.69,4.31-2.33-4.72-5.7,23.22c-1-7.06,3.6-13.67,1.71-21.07L198,424.92l-1.34-.3,4.88-31.84-1.15-.26-5.33,27.07-1-.19,1.06-14.77-.82-.06-4.72,13.22-1.26-.34,3.48-14.67-7.23,10.57-4.07-7.58,1-3-1.37-.34-2.26,8.35-4.12-8.65-1.55,6.55-3.75-9.44-1.05.07v12.17l-1.14.06-2.36-13c-8.09,1.41-7.86,7-8.65,12.39l-1.65-9.34-5.39,7.76-1.12-.91,1.59-3.77c-5.59,3.89-9.31,9.71-16.61,8,4.23-7.29,10.07-11.89,18.7-13.15A103.25,103.25,0,0,0,167.55,395c2.2-.72,5.19-2.23,5.79-4.06,2.67-8.12,4.62-16.47,6.78-24.58l-3.49,2.74-1.78-1.95c1.7-1,3.3-2.42,5.12-2.84,3-.7,6.18-.74,10.22-1.15a3.66,3.66,0,0,0,1.45,2c1.61.82,4,1.86,5.31,1.24,5.78-2.72,9.84-7.38,12.55-13.18.08-.16-.19-.48-.29-.74l-3.35,2A13.39,13.39,0,0,1,208.7,349c3-3.38,4.22-7.47,5-11.73l1.7,2.74,7.94-9.45-1.05-1.12-8.57,7.93-9.24,5.45-.46-.76,9.23-8.06-.84-1.05-9.83,5-.79-1.24,2.19-4.35-4.1.82c.42-1.11,1.12-2.12.88-2.45-1.17-1.61-4.36-2.42-1.72-5.28-.89-.22-2.34-.86-2.56-.58a12.8,12.8,0,0,0-1.61,3.59c-2.07,6.11-4.1,12.24-6.14,18.36l-1.1-.36L195,321.33l-15.26,8.79-.46-.79,6.46-4.76-.42-.8L173,330l-.42-.88,16.13-9.35-.48-.85-19.65,8.52,1.19-7-2.6-.9,4.32-2.9-2.2-1.21,4.91-2.77-.28-.54-7.64,2,3.08-6.63c-.49-.44-2.32-1.85-2.21-2,3.15-4.87-3.83-8.53-1.59-13.35.25-.55-1.61-2.22-2.65-3.19a25.73,25.73,0,0,0-3.08-2.17l.69-1.05c1.36.79,2.64,1.89,4.11,2.29a20.73,20.73,0,0,0,7.53,1.07c.91-.1,1.4-3,2.28-4.44,1.51-2.56-.61-5.15.4-7.93.74-2-.34-4.72-.61-7.12Zm122.36-15.1,10.76,8.94-1.37-5,3.58,3.86.62-.31L307,253.28l.63-.22,2.64,3.33,1.14-.45-4.14-15.41L287.5,252.36l8.49,7.93Zm47,54.3a56.61,56.61,0,0,0,7-2.69c1.76-1,3.81-2.17,4.67-3.82,2.16-4.16,4.66-7.65,9-9-2-4.35-6.42-3.34-10.42-3.39-7-.08-9.3,1.11-10.38,5.16l2-1.07C345,299.17,338.85,303.25,343.55,308.87Zm-120,31.78-15.26,19.8c1.89-.31,3.89-.13,5.28-1,4.06-2.43,5.63-2.07,7.35,2.32.49,1.26,1,2.49,1.3,3.15.94-2.43,2-5,2.88-7.57a9.23,9.23,0,0,0,.3-3.85C224.8,349,224.07,344.38,223.52,340.66Zm2.07,90.09c4.47-1.12,6.24-5.68,10.41-6.29.28,0,.55-2.53.22-3.72a23.36,23.36,0,0,0-2.34-4.45l-1.81,5.8-1-.22,2.09-13.77-.8-.16-2.59,9.56-.65-.18,1.91-11-.94-.15Zm25.46,35-5-11.62-2.39.72c1.1,4.8,1.93,9.69,3.43,14.37.66,2.05,2.67,3.67,4.07,5.48,1-2.3,2.1-4.58,3-6.93.23-.63-.26-1.51-.47-2.54Zm152.17-57.47.94-1.65-7-13.79v8.59l-.83,0-2.84-6.54v10.34ZM365.38,288l-4.93-5.41h5c-5.21-2.7-12.07-.58-18.07,5.41ZM298.25,441.9l6.61,6.09,3.66-16Zm29.6,18.5-4-.55-.74,8.6,1.12.88c2.18-2.07,5.09-3.81,6.26-6.35.75-1.62-1.07-4.43-2.12-8Zm117-16.6c2.58,7.21-.25,16.65,9,21.91Zm-87.34-52.17c.72.19,2.4.74,4.11,1.08s3.25.41,4.88.6c-.32-1.32-.23-3.38-1-3.82-2.2-1.22-2.27-6.78-5.88-4.22Zm17.66,21.22c10.21,4.57,10.21,4.57,12.3-.14C378.19,409.19,376.78,409.19,375.15,412.84Zm-83.5-34.29-6.81,2.16,8.14,5.34Zm-64.16,25.76-2.15-.27-1.73,14.69,1.81.22ZM236,356.4l-1.23-.5c-.25,4.08-6.91,6.59-1.66,12.66ZM349.3,432.09l-1.44-10.18C343.27,423.57,343.42,424.91,349.3,432.09Zm32.23-7-.67-1.56h-8.57c2,2,3.25,4.11,4.88,4.46C378.36,428.21,380.05,426.11,381.53,425.06ZM273.21,516.7l4.22,10.2C279,522.67,279.55,518.91,273.21,516.7Zm160.52-68.18-4.3-12.23C430,440.69,428.16,445.82,433.73,448.52ZM249.54,255.25l1,1.63c4.63,1.12,3.49-4.65,6-6l-.88-1.05Zm29,190.65.8,2.13c1.81-.45,3.76-.62,5.32-1.51.45-.25-.26-2.55-.44-3.9Z"/>
        <path d="M174.24,269.55c-6.28,3.53-13,2.77-18.84,2.49l-.93-7c4.59-2.2,2.91-5.43-1.5-9.23a21.59,21.59,0,0,1,3.47,0c.84.18,1.77,1.1,2.39.89,5.58-1.9,9.42.63,11.17,6.77.64,2.26,2.73,4.11,4.16,6.13Z"/>
        <path d="M525.15,553.76,516,529.81C523,536.62,527.44,543.68,525.15,553.76Z"/>
        <path d="M493.9,508l8.78,6.92-2.1,2.05L494,507.92Z"/>
      </g>
    </g>
  </g>
</svg>
